# xmcd
#
# Track frame offsets:
#	150
#	25090
#	36760
#	51683
#	63330
#	76027
#	100693
#	123070
#	136792
#
# Disc length: 2001 seconds
#
# Revision: 0
# Processed by: cddbd v1.5.2PL0 Copyright (c) Steve Scherf et al.
# Submitted via: EasyCDDAExtractor 2010.6.0.0
#
DISCID=6807cf09
DTITLE=Trio lluvia - Trio lluvia ii
DYEAR=1900
DGENRE=
TTITLE0=Vago de la inmensidad
TTITLE1=Compréndalo señor
TTITLE2=Canción poco importante
TTITLE3=Y el trigo maduró sin el
TTITLE4=Piensa que hay algo más
TTITLE5=Blues para cierta gente
TTITLE6=Dónde está el que creía ser
TTITLE7=Rosado atardecer
TTITLE8=Sólo el sol le sonríe
EXTD=
EXTT0=
EXTT1=
EXTT2=
EXTT3=
EXTT4=
EXTT5=
EXTT6=
EXTT7=
EXTT8=
PLAYORDER=
